<svg viewBox="0 0 100 100" xmlns="http://www.w3.org/2000/svg">
  <!-- Gear part -->
  <defs>
    <g id="gear-tooth">
      <path d="M -5,-2 L 5,-2 L 7,0 L 5,2 L -5,2 L -7,0 Z" />
    </g>
  </defs>

  <circle cx="50" cy="50" r="38" fill="none" stroke="#888888" stroke-width="6"/>
  <circle cx="50" cy="50" r="18" fill="none" stroke="#888888" stroke-width="4"/>

  <use href="#gear-tooth" x="50" y="10" fill="#888888" />
  <use href="#gear-tooth" x="50" y="90" fill="#888888" transform="rotate(180 50 50)" />
  <use href="#gear-tooth" x="10" y="50" fill="#888888" transform="rotate(-90 50 50)" />
  <use href="#gear-tooth" x="90" y="50" fill="#888888" transform="rotate(90 50 50)" />

  <use href="#gear-tooth" x="50" y="50" fill="#888888" transform="translate(28.28 28.28) rotate(45 0 0) translate(-28.28 -28.28) translate(21.21 -21.21) "/>
  <use href="#gear-tooth" x="50" y="50" fill="#888888" transform="translate(28.28 -28.28) rotate(135 0 0) translate(-28.28 28.28) translate(21.21 21.21)"/>
  <use href="#gear-tooth" x="50" y="50" fill="#888888" transform="translate(-28.28 28.28) rotate(-45 0 0) translate(28.28 -28.28) translate(-21.21 -21.21)"/>
  <use href="#gear-tooth" x="50" y="50" fill="#888888" transform="translate(-28.28 -28.28) rotate(-135 0 0) translate(28.28 28.28) translate(-21.21 21.21)"/>

  <!-- Play button part -->
  <polygon points="42,38 62,50 42,62" fill="#1a73e8"/>
</svg> 